<?xml version="1.0" standalone="no"?>
<!DOCTYPE svg PUBLIC "-//W3C//DTD SVG 20010904//EN"
 "http://www.w3.org/TR/2001/REC-SVG-20010904/DTD/svg10.dtd">
<svg version="1.0" xmlns="http://www.w3.org/2000/svg"
 width="200.000000pt" height="200.000000pt" viewBox="0 0 200.000000 200.000000"
 preserveAspectRatio="xMidYMid meet">
<metadata>
Created by potrace 1.11, written by Peter Selinger 2001-2013
</metadata>
<g transform="translate(0.000000,200.000000) scale(0.100000,-0.100000)"
fill="#000000" stroke="none">
<path d="M908 1204 c-49 -26 -88 -50 -88 -55 0 -5 41 11 90 36 l90 45 90 -45
c50 -25 90 -41 90 -35 0 8 -171 101 -182 100 -2 -1 -42 -21 -90 -46z"/>
<path d="M932 1158 c-42 -42 23 -90 71 -53 10 7 29 12 41 9 12 -2 31 3 42 11
21 16 19 16 -43 19 -24 1 -48 7 -55 14 -15 15 -41 15 -56 0z m18 -28 c0 -5 -4
-10 -10 -10 -5 0 -10 5 -10 10 0 6 5 10 10 10 6 0 10 -4 10 -10z"/>
<path d="M103 1084 c9 -10 687 -11 687 -1 0 4 -156 7 -347 7 -190 0 -343 -3
-340 -6z"/>
<path d="M929 1077 c7 -10 25 -16 40 -15 14 1 36 -4 48 -10 26 -15 63 -16 63
-2 0 5 -16 16 -35 24 -27 12 -41 13 -59 5 -17 -8 -30 -8 -47 2 -22 11 -23 11
-10 -4z"/>
<path d="M1213 1083 c6 -10 665 -9 674 0 3 4 -148 7 -336 7 -188 0 -340 -3
-338 -7z"/>
<path d="M375 923 c0 -48 4 -73 11 -73 7 0 11 13 8 35 -2 27 1 35 14 36 15 0
15 1 1 7 -10 5 -15 17 -13 38 1 18 -3 31 -9 31 -8 0 -12 -25 -12 -74z"/>
<path d="M473 925 c-1 -41 3 -75 8 -75 5 0 9 34 9 75 0 41 -4 75 -8 75 -5 0
-9 -34 -9 -75z"/>
<path d="M984 992 c-23 -15 -21 -38 9 -69 18 -19 27 -38 24 -47 -8 -20 -44
-21 -50 -1 -4 11 -4 10 -3 -2 2 -27 52 -30 65 -4 9 17 6 26 -20 56 -35 40 -34
70 3 60 18 -5 20 -4 8 4 -18 13 -22 13 -36 3z"/>
<path d="M544 954 c-56 -55 14 -133 86 -94 43 23 29 100 -22 113 -21 6 -21 5
5 -14 45 -34 30 -99 -23 -99 -50 0 -68 63 -28 100 12 11 18 20 14 20 -4 0 -18
-11 -32 -26z"/>
<path d="M869 978 c-1 -2 -2 -31 -3 -65 l-2 -63 32 0 c18 0 35 4 38 8 3 5 -8
6 -25 4 -26 -4 -29 -1 -29 21 0 20 6 27 28 30 l27 4 -27 2 c-23 1 -28 6 -28
27 0 16 4 23 12 18 7 -4 8 -3 4 4 -6 11 -24 16 -27 10z"/>
<path d="M910 976 c0 -2 7 -7 16 -10 8 -3 12 -2 9 4 -6 10 -25 14 -25 6z"/>
<path d="M1065 913 c0 -39 4 -63 11 -63 7 0 10 20 9 53 0 28 2 57 6 62 5 6 1
11 -9 11 -14 0 -17 -11 -17 -63z"/>
<path d="M1110 971 c0 -5 7 -12 16 -15 15 -6 15 -8 0 -31 -17 -26 -9 -34 12
-13 18 18 14 46 -8 58 -11 6 -20 7 -20 1z"/>
<path d="M1180 916 l0 -66 34 0 c19 0 37 3 39 8 3 4 -9 7 -25 7 -24 0 -32 5
-34 23 -3 18 1 22 24 23 l27 1 -25 7 c-18 5 -24 13 -22 28 2 12 -2 24 -8 28
-6 4 -10 -16 -10 -59z"/>
<path d="M1241 964 c0 -11 3 -14 6 -6 3 7 2 16 -1 19 -3 4 -6 -2 -5 -13z"/>
<path d="M1285 913 c0 -43 4 -63 12 -63 9 0 11 10 7 30 -6 26 -4 30 17 31 24
0 24 0 2 9 -15 6 -21 16 -19 33 2 13 -2 24 -8 24 -7 0 -11 -24 -11 -64z"/>
<path d="M1380 978 c-1 -5 -3 -17 -4 -28 0 -12 -8 -25 -16 -30 -13 -8 -13 -10
2 -10 13 0 16 -7 13 -30 -2 -19 1 -30 8 -30 8 0 11 16 9 48 -3 57 -8 90 -12
80z"/>
<path d="M1445 972 c-13 -9 -13 -122 0 -122 6 0 10 27 10 65 0 36 0 65 0 65 0
0 -4 -4 -10 -8z"/>
<path d="M1470 974 c0 -4 7 -12 17 -19 17 -13 11 -51 -7 -40 -5 3 -10 2 -10
-2 0 -12 49 -63 61 -63 5 0 -1 12 -15 27 -23 25 -24 29 -10 44 9 10 13 22 9
28 -8 14 -45 34 -45 25z"/>
<path d="M1569 975 c-1 0 -2 -28 -3 -62 l-2 -63 32 0 c18 0 35 4 38 8 3 5 -8
6 -25 4 -26 -4 -29 -1 -29 21 0 20 6 27 28 30 l27 4 -27 2 c-33 1 -39 34 -10
50 15 9 14 10 -5 8 -13 -1 -24 -1 -24 -2z"/>
<path d="M697 954 c-15 -51 -18 -104 -7 -104 6 0 9 3 6 8 -2 4 -1 23 3 42 l8
35 21 -44 20 -44 23 44 c19 38 23 41 29 24 4 -11 6 -30 5 -42 -1 -13 3 -23 11
-23 13 0 11 39 -6 100 -6 24 -8 22 -32 -25 l-25 -49 -25 49 c-21 39 -26 45
-31 29z"/>
<path d="M113 754 c8 -8 1776 -8 1784 0 4 3 -398 6 -892 6 -494 0 -896 -3
-892 -6z"/>
</g>
</svg>
